<mxfile host="app.diagrams.net" modified="2024-04-16T08:34:46.253Z" agent="Mozilla/5.0 (Windows NT 10.0; Win64; x64) AppleWebKit/537.36 (KHTML, like Gecko) Chrome/123.0.0.0 Safari/537.36 Edg/123.0.0.0" version="24.2.5" etag="v_7v5NGoVmRj0Mb_Nfrh" type="github">
  <diagram name="第 1 页" id="QtfxMjJk9N1SOdChklhB">
    <mxGraphModel>
      <root>
        <mxCell id="0" />
        <mxCell id="1" parent="0" />
      </root>
    </mxGraphModel>
  </diagram>
</mxfile>
